<?xml version="1.0" encoding="UTF-8" standalone="no"?>
<!DOCTYPE svg PUBLIC "-//W3C//DTD SVG 1.1//EN"
 "http://www.w3.org/Graphics/SVG/1.1/DTD/svg11.dtd">
<!-- Generated by graphviz version 3.0.0 (20220413.0242)
 -->
<!-- Title: inheritancebb30254d88 Pages: 1 -->
<svg width="265pt" height="64pt"
 viewBox="0.00 0.00 265.00 64.00" xmlns="http://www.w3.org/2000/svg" xmlns:xlink="http://www.w3.org/1999/xlink">
<g id="graph0" class="graph" transform="scale(1 1) rotate(0) translate(4 60)">
<title>inheritancebb30254d88</title>
<!-- ILineTerminal -->
<g id="node1" class="node">
<title>ILineTerminal</title>
<g id="a_node1"><a xlink:href="../ILineTerminal.html#pyTooling.TerminalUI.ILineTerminal" xlink:title="A mixin class (interface) to provide class&#45;local terminal writing methods." target="_top">
<polygon fill="white" stroke="black" stroke-width="0.5" points="114,-56 0,-56 0,-37 114,-37 114,-56"/>
<text text-anchor="middle" x="57" y="-44" font-family="Vera Sans, DejaVu Sans, Liberation Sans, Arial, Helvetica, sans" font-size="10.00">ILineTerminal</text>
</a>
</g>
</g>
<!-- LineTerminal -->
<g id="node2" class="node">
<title>LineTerminal</title>
<g id="a_node2"><a xlink:href="../LineTerminal.html#pyTooling.TerminalUI.LineTerminal" xlink:title="LineTerminal" target="_top">
<polygon fill="white" stroke="black" stroke-width="0.5" points="257,-37 150,-37 150,-18 257,-18 257,-37"/>
<text text-anchor="middle" x="203.5" y="-25" font-family="Vera Sans, DejaVu Sans, Liberation Sans, Arial, Helvetica, sans" font-size="10.00">LineTerminal</text>
</a>
</g>
</g>
<!-- ILineTerminal&#45;&gt;LineTerminal -->
<g id="edge2" class="edge">
<title>ILineTerminal&#45;&gt;LineTerminal</title>
<path fill="none" stroke="black" stroke-width="0.5" d="M114.28,-39.1C124.27,-37.79 134.68,-36.42 144.71,-35.1"/>
<polygon fill="black" stroke="black" stroke-width="0.5" points="145.19,-36.8 149.92,-34.41 144.73,-33.33 145.19,-36.8"/>
</g>
<!-- Terminal -->
<g id="node3" class="node">
<title>Terminal</title>
<g id="a_node3"><a xlink:href="../Terminal.html#pyTooling.TerminalUI.Terminal" xlink:title="Terminal" target="_top">
<polygon fill="white" stroke="black" stroke-width="0.5" points="95.5,-19 18.5,-19 18.5,0 95.5,0 95.5,-19"/>
<text text-anchor="middle" x="57" y="-7" font-family="Vera Sans, DejaVu Sans, Liberation Sans, Arial, Helvetica, sans" font-size="10.00">Terminal</text>
</a>
</g>
</g>
<!-- Terminal&#45;&gt;LineTerminal -->
<g id="edge1" class="edge">
<title>Terminal&#45;&gt;LineTerminal</title>
<path fill="none" stroke="black" stroke-width="0.5" d="M95.59,-14.18C110.59,-16.05 128.21,-18.25 144.77,-20.31"/>
<polygon fill="black" stroke="black" stroke-width="0.5" points="144.69,-22.06 149.87,-20.94 145.13,-18.59 144.69,-22.06"/>
</g>
</g>
</svg>
